HIERARCHY
ROOT Pelvis
{
	OFFSET 0.000000 0.000000 0.000000
	CHANNELS 6 Xposition Yposition Zposition Xrotation Yrotation Zrotation
	JOINT LeftUpLeg_virtual
	{
		OFFSET 0.000000 0.000000 0.000000
		CHANNELS 3 Xrotation Yrotation Zrotation
		JOINT LeftUpLeg
		{
			OFFSET 8.479700 -4.795502 -0.379100
			CHANNELS 3 Xrotation Yrotation Zrotation
			JOINT LeftLeg
			{
				OFFSET 0.024144 -32.555107 0.112900
				CHANNELS 3 Xrotation Yrotation Zrotation
				JOINT LeftFoot
				{
					OFFSET -0.024144 -32.638630 -3.012600
					CHANNELS 3 Xrotation Yrotation Zrotation
					JOINT LeftToeBase
					{
						OFFSET 0.970200 -13.225400 11.864200
						CHANNELS 3 Xrotation Yrotation Zrotation
						End Site
						{
							OFFSET 0 0 0
						}
					}
				}
			}
		}
	}
	JOINT RightUpLeg_virtual
	{
		OFFSET 0.000000 0.000000 0.000000
		CHANNELS 3 Xrotation Yrotation Zrotation
		JOINT RightUpLeg
		{
			OFFSET -8.479700 -4.795502 -0.379100
			CHANNELS 3 Xrotation Yrotation Zrotation
			JOINT RightLeg
			{
				OFFSET -0.023144 -32.555092 0.112900
				CHANNELS 3 Xrotation Yrotation Zrotation
				JOINT RightFoot
				{
					OFFSET 0.023144 -32.638641 -3.012700
					CHANNELS 3 Xrotation Yrotation Zrotation
					JOINT RightToeBase
					{
						OFFSET -0.970200 -13.225400 11.864200
						CHANNELS 3 Xrotation Yrotation Zrotation
						End Site
						{
							OFFSET 0 0 0
						}
					}
				}
			}
		}
	}
	JOINT Hips_virtual
	{
		OFFSET 0.000000 0.000000 0.000000
		CHANNELS 3 Xrotation Yrotation Zrotation
		JOINT Hips
		{
			OFFSET -0.000000 -0.000000 -0.000000
			CHANNELS 3 Xrotation Yrotation Zrotation
			JOINT Spine
			{
				OFFSET 0.000000 7.722000 1.166200
				CHANNELS 3 Xrotation Yrotation Zrotation
				JOINT Spine1
				{
					OFFSET 0.000000 12.024101 0.248800
					CHANNELS 3 Xrotation Yrotation Zrotation
					JOINT Spine2
					{
						OFFSET 0.000000 11.502998 -0.491200
						CHANNELS 3 Xrotation Yrotation Zrotation
						JOINT Neck_virtual
						{
							OFFSET 0.000000 0.000000 0.000000
							CHANNELS 3 Xrotation Yrotation Zrotation
							JOINT Neck
							{
								OFFSET 0.000000 18.430702 -3.123100
								CHANNELS 3 Xrotation Yrotation Zrotation
								JOINT Head
								{
									OFFSET 0.000000 9.051102 1.034000
									CHANNELS 3 Xrotation Yrotation Zrotation
									End Site
									{
										OFFSET 0 0 0
									}
								}
							}
						}
						JOINT LeftShoulder_virtual
						{
							OFFSET 0.000000 0.000000 0.000000
							CHANNELS 3 Xrotation Yrotation Zrotation
							JOINT LeftShoulder
							{
								OFFSET 6.197800 13.665199 -4.064700
								CHANNELS 3 Xrotation Yrotation Zrotation
								JOINT LeftArm
								{
									OFFSET 7.778100 -0.187103 -1.709300
									CHANNELS 3 Xrotation Yrotation Zrotation
									JOINT LeftForeArm
									{
										OFFSET 22.049376 0.000000 0.000000
										CHANNELS 3 Xrotation Yrotation Zrotation
										JOINT LeftHand
										{
											OFFSET 23.009392 0.000000 0.000000
											CHANNELS 3 Xrotation Yrotation Zrotation
											End Site
											{
												OFFSET 0 0 0
											}
										}
									}
								}
							}
						}
						JOINT RightShoulder_virtual
						{
							OFFSET 0.000000 0.000000 0.000000
							CHANNELS 3 Xrotation Yrotation Zrotation
							JOINT RightShoulder
							{
								OFFSET -6.197800 13.665199 -4.064700
								CHANNELS 3 Xrotation Yrotation Zrotation
								JOINT RightArm
								{
									OFFSET -7.778100 -0.187103 -1.709300
									CHANNELS 3 Xrotation Yrotation Zrotation
									JOINT RightForeArm
									{
										OFFSET -22.049376 0.000000 0.000000
										CHANNELS 3 Xrotation Yrotation Zrotation
										JOINT RightHand
										{
											OFFSET -23.009392 0.000000 0.000000
											CHANNELS 3 Xrotation Yrotation Zrotation
											End Site
											{
												OFFSET 0 0 0
											}
										}
									}
								}
							}
						}
					}
				}
			}
		}
	}
}
MOTION
Frames: 6
Frame Time: 0.03333333
-1.505060 75.384773 0.158178 0.000000 0.000000 0.000000 51.457662 -70.871709 52.598044 -52.161168 2.217458 -2.607383 45.076892 -9.756084 1.524991 -9.490987 -0.451956 0.136871 0.000000 0.000000 0.000000 51.457662 -70.871709 52.598044 -45.792286 -4.104851 -18.290270 46.126743 -5.251715 -2.270146 -13.373235 -2.408132 14.495543 0.000000 0.000000 0.000000 51.457662 -70.871709 52.598044 0.000001 0.000001 -0.000000 7.794653 3.291910 4.343488 12.707909 6.406374 6.655403 0.000000 0.000000 0.000000 12.728338 6.436538 6.586117 3.385420 -0.460127 2.258547 0.000000 0.000000 0.000000 12.728338 6.436538 6.586117 0.608296 -2.105599 -11.581380 -46.459172 -29.078817 -92.550702 -0.000002 -20.858993 -0.000006 0.000000 0.000000 0.000000 12.728338 6.436538 6.586117 -0.784360 15.466922 22.252685 -56.162870 25.008345 77.070939 0.000001 0.015614 -0.000004 0.000000 0.000000 0.000000 
-1.510698 75.396408 0.205776 0.000000 0.000000 0.000000 51.377024 -70.855235 52.503060 -52.124660 2.208623 -2.648008 45.046488 -9.723060 1.523765 -9.483733 -0.460030 0.178037 0.000000 0.000000 0.000000 51.377024 -70.855235 52.503060 -45.724917 -4.118289 -18.336338 46.045430 -5.214666 -2.242498 -13.339307 -2.447826 14.514953 0.000000 0.000000 0.000000 51.377024 -70.855235 52.503060 0.000001 0.000001 -0.000000 7.795712 3.286182 4.330970 12.722936 6.393031 6.642683 0.000000 0.000000 0.000000 12.744204 6.422145 6.572914 3.354593 -0.453952 2.186412 0.000000 0.000000 0.000000 12.744204 6.422145 6.572914 0.608189 -2.112957 -11.540763 -46.406351 -29.046295 -92.578139 -0.000005 -20.879922 -0.000016 0.000000 0.000000 0.000000 12.744204 6.422145 6.572914 -0.774895 15.458361 22.231164 -54.597315 24.896591 76.442910 -0.000011 2.873082 0.000010 0.000000 0.000000 0.000000 
-1.512392 75.406441 0.254692 0.000000 0.000000 0.000000 51.310625 -70.833194 52.425920 -52.102500 2.177887 -2.691786 45.005582 -9.612082 1.507713 -9.447886 -0.463614 0.191748 0.000000 0.000000 0.000000 51.310625 -70.833194 52.425920 -45.672860 -4.128462 -18.386879 45.968068 -5.191829 -2.219009 -13.302324 -2.471913 14.540996 0.000000 0.000000 0.000000 51.310625 -70.833194 52.425920 0.000000 0.000001 0.000000 7.797050 3.275606 4.321322 12.734701 6.382448 6.620569 0.000000 0.000000 0.000000 12.753691 6.413123 6.553446 3.323827 -0.449308 2.118603 0.000000 0.000000 0.000000 12.753691 6.413123 6.553446 0.607740 -2.121762 -11.501767 -46.348783 -29.026187 -92.588719 -0.000002 -20.910897 -0.000000 0.000000 0.000000 0.000000 12.753691 6.413123 6.553446 -0.771680 15.442474 22.219744 -54.175558 25.033934 76.267764 -0.000017 3.450914 0.000012 0.000000 0.000000 0.000000 
-1.511980 75.415497 0.304638 0.000000 0.000000 0.000000 51.249635 -70.808161 52.355729 -52.085534 2.187792 -2.741254 44.988533 -9.628824 1.512005 -9.453703 -0.472338 0.238081 0.000000 0.000000 0.000000 51.249635 -70.808161 52.355729 -45.623779 -4.125585 -18.438606 45.893779 -5.161165 -2.189057 -13.263775 -2.512155 14.564921 0.000000 0.000000 0.000000 51.249635 -70.808161 52.355729 -0.000002 -0.000001 -0.000000 7.798154 3.270164 4.307205 12.748115 6.372648 6.603424 0.000000 0.000000 0.000000 12.767409 6.402606 6.536470 3.292755 -0.439157 2.047261 0.000000 0.000000 0.000000 12.767409 6.402606 6.536470 0.605205 -2.134129 -11.471709 -46.290408 -29.015333 -92.588521 -0.000008 -20.949845 -0.000000 0.000000 0.000000 0.000000 12.767409 6.402606 6.536470 -0.765687 15.424794 22.200341 -53.294737 25.069697 75.930803 0.000001 4.975369 -0.000004 0.000000 0.000000 0.000000 
-1.509108 75.423401 0.356104 0.000000 0.000000 0.000000 51.191394 -70.779755 52.289265 -52.072457 2.207122 -2.788854 44.955977 -9.605619 1.521392 -9.414652 -0.479435 0.270998 0.000000 0.000000 0.000000 51.191394 -70.779755 52.289265 -45.577504 -4.108451 -18.493157 45.822561 -5.154722 -2.150666 -13.223611 -2.537947 14.594478 0.000000 0.000000 0.000000 51.191394 -70.779755 52.289265 0.000000 0.000000 0.000000 7.798837 3.269414 4.293735 12.761470 6.360629 6.585526 0.000000 0.000000 0.000000 12.782056 6.390462 6.516436 3.261831 -0.433254 1.978194 0.000000 0.000000 0.000000 12.782056 6.390462 6.516436 0.622092 -2.152979 -11.444269 -46.248959 -29.013530 -92.576760 0.000012 -20.995872 0.000006 0.000000 0.000000 0.000000 12.782056 6.390462 6.516436 -0.770521 15.402022 22.186649 -52.826934 25.199976 75.725365 0.000007 5.532889 -0.000015 0.000000 0.000000 0.000000 
-1.503626 75.430008 0.409611 0.000000 0.000000 0.000000 51.132251 -70.747830 52.222332 -52.068704 2.186835 -2.843725 44.929684 -9.532450 1.506099 -9.398890 -0.486118 0.304277 0.000000 0.000000 0.000000 51.132251 -70.747830 52.222332 -45.541929 -4.106445 -18.550860 45.752336 -5.121806 -2.126071 -13.181584 -2.579256 14.623449 0.000000 0.000000 0.000000 51.132251 -70.747830 52.222332 0.000000 0.000000 0.000000 7.797014 3.265111 4.279875 12.772274 6.352055 6.564568 0.000000 0.000000 0.000000 12.792376 6.381430 6.496828 3.230690 -0.423008 1.908518 0.000000 0.000000 0.000000 12.792376 6.381430 6.496828 0.609490 -2.164707 -11.415746 -46.173728 -29.018632 -92.563892 -0.000003 -21.049323 0.000012 0.000000 0.000000 0.000000 12.792376 6.381430 6.496828 -0.767247 15.378459 22.175152 -52.336307 25.329852 75.550020 0.000001 6.420246 -0.000006 0.000000 0.000000 0.000000 
